<svg width="281" height="62" viewBox="0 0 281 62" fill="none" xmlns="http://www.w3.org/2000/svg">
<path d="M74.4775 33.8883H80.4105C80.7618 33.8883 81.074 34.1622 81.1131 34.5143C81.3863 38.0747 83.7673 39.1702 87.9438 39.1702C91.5349 39.1702 93.3304 37.9573 93.3304 35.4924C93.3304 33.3405 92.0423 32.558 87.6316 31.6973L85.0554 31.1886C77.9904 29.9757 74.4775 26.6501 74.4775 21.2508C74.4775 15.5776 78.8492 11.8215 86.8509 11.8215C95.0088 11.8215 99.4195 15.3037 100.005 21.4073C100.044 21.7985 99.7318 22.1507 99.3024 22.1507H93.5646C93.2133 22.1507 92.9401 21.9159 92.862 21.5638C92.5107 18.9424 90.7932 17.6903 86.968 17.6903C83.7283 17.6903 82.1279 18.7467 82.1279 20.8986C82.1279 23.0897 83.5331 24.0287 87.5145 24.7721L90.1687 25.2807C97.8192 26.6501 101.137 29.5454 101.137 34.9447C101.137 41.5177 96.0237 44.9999 87.7096 44.9999C79.1224 44.9999 74.2043 41.0874 73.853 34.5534C73.7359 34.2013 74.0872 33.8883 74.4775 33.8883Z" fill="white"/>
<path d="M119.521 21.29H125.064C125.454 21.29 125.767 21.603 125.767 21.9943V43.6307C125.767 44.0219 125.454 44.3349 125.064 44.3349H119.677C119.287 44.3349 118.975 44.0219 118.975 43.6307V42.9655C118.975 42.3395 118.233 42.0265 117.765 42.496C116.164 44.1002 114.135 44.8827 111.754 44.8827C106.992 44.8827 103.791 41.9483 103.791 36.3925V21.9943C103.791 21.603 104.103 21.29 104.494 21.29H110.036C110.427 21.29 110.739 21.603 110.739 21.9943V34.9839C110.739 37.6053 111.988 38.8965 114.447 38.8965C116.789 38.8965 118.819 37.2923 118.819 34.1232V21.9943C118.819 21.603 119.131 21.29 119.521 21.29Z" fill="white"/>
<path d="M129.163 36.9792H134.549C134.901 36.9792 135.174 37.214 135.213 37.5661C135.564 39.6398 136.891 40.344 139.546 40.344C142.122 40.344 143.41 39.6006 143.41 38.1139C143.41 36.7054 142.473 36.0794 139.468 35.5707L136.501 35.0621C131.349 34.2405 128.773 31.8929 128.773 28.0195C128.773 23.3636 132.481 20.7422 139.116 20.7422C145.635 20.7422 149.148 23.0897 149.733 27.8239C149.772 28.2543 149.46 28.6064 149.031 28.6064H143.995C143.644 28.6064 143.371 28.3325 143.293 28.0195C143.02 26.1024 141.536 25.359 139.116 25.359C136.774 25.359 135.603 26.0632 135.603 27.55C135.603 28.8412 136.618 29.5063 138.96 29.8584L142.395 30.367C147.86 31.2278 150.436 33.458 150.436 37.4879C150.436 42.2612 146.415 44.9217 139.468 44.9217C132.637 44.9217 129.163 42.8089 128.499 37.7226C128.421 37.3705 128.733 36.9792 129.163 36.9792Z" fill="white"/>
<path d="M165.229 26.3761H161.52V37.1356C161.52 38.7398 162.223 39.131 164.136 39.131H165.229C165.619 39.131 165.931 39.444 165.931 39.8353V43.6696C165.931 44.0217 165.658 44.3347 165.307 44.3738C164.526 44.4521 163.667 44.4912 162.73 44.4912C156.993 44.4912 154.573 42.5741 154.573 37.879V26.3761H151.84C151.45 26.3761 151.138 26.0631 151.138 25.6719V21.9941C151.138 21.6028 151.45 21.2898 151.84 21.2898H154.573V15.1471C154.573 14.7559 154.885 14.4429 155.275 14.4429H160.818C161.208 14.4429 161.52 14.7559 161.52 15.1471V21.2898H165.229C165.619 21.2898 165.931 21.6028 165.931 21.9941V25.6719C165.931 26.0631 165.619 26.3761 165.229 26.3761Z" fill="white"/>
<path d="M183.769 43.8652C183.574 43.3174 183.418 42.6132 183.379 41.7524C181.817 43.8652 179.358 44.8825 176.041 44.8825C171.044 44.8825 167.688 42.3002 167.688 37.8399C167.688 33.6926 170.303 31.1886 176.665 30.6408L180.256 30.3278C182.247 30.093 183.223 29.467 183.223 28.0585C183.223 26.4935 182.052 25.7501 179.71 25.7501C177.133 25.7501 176.08 26.337 175.728 28.215C175.65 28.528 175.377 28.8019 175.026 28.8019H169.522C169.093 28.8019 168.78 28.4106 168.819 27.9803C169.522 23.207 173.152 20.8203 179.71 20.8203C186.501 20.8203 189.936 23.1678 189.936 27.902V40.1092C189.936 41.4394 190.092 42.5741 190.405 43.3957C190.561 43.8652 190.249 44.3347 189.741 44.3347H184.316C184.12 44.2956 183.847 44.1391 183.769 43.8652ZM183.262 35.2576V33.5752C182.871 34.0056 182.052 34.3186 180.959 34.4751L178.109 34.7881C175.884 35.0228 174.752 35.9619 174.752 37.566C174.752 39.1701 176.002 40.1874 178.148 40.1874C181.115 40.1483 183.262 38.6615 183.262 35.2576Z" fill="white"/>
<path d="M193.645 43.6305V21.9941C193.645 21.6028 193.957 21.2898 194.347 21.2898H199.89C200.28 21.2898 200.592 21.6028 200.592 21.9941V43.6305C200.592 44.0217 200.28 44.3347 199.89 44.3347H194.347C193.957 44.2956 193.645 43.9826 193.645 43.6305ZM193.84 17.9642V13.4648C193.84 13.0735 194.152 12.7605 194.542 12.7605H199.773C200.163 12.7605 200.475 13.0735 200.475 13.4648V17.9642C200.475 18.3554 200.163 18.6684 199.773 18.6684H194.542C194.152 18.6684 193.84 18.3554 193.84 17.9642Z" fill="white"/>
<path d="M226.589 29.2324V43.6306C226.589 44.0218 226.277 44.3348 225.886 44.3348H220.344C219.953 44.3348 219.641 44.0218 219.641 43.6306V30.6018C219.641 27.9804 218.392 26.6893 215.933 26.6893C213.591 26.6893 211.561 28.2934 211.561 31.4626V43.6306C211.561 44.0218 211.249 44.3348 210.859 44.3348H205.355C204.965 44.3348 204.652 44.0218 204.652 43.6306V21.9942C204.652 21.6029 204.965 21.2899 205.355 21.2899H210.741C211.132 21.2899 211.444 21.6029 211.444 21.9942V24.5374C213.24 21.9942 215.621 20.7422 218.665 20.7422C223.388 20.7422 226.589 23.7157 226.589 29.2324Z" fill="white"/>
<path d="M237.479 11.3521C243.334 11.3521 246.456 14.7168 246.456 20.1553C246.456 25.5937 243.334 28.9585 237.479 28.9585H231.078C230.648 28.9585 230.297 28.6064 230.297 28.176V12.1346C230.297 11.7042 230.648 11.3521 231.078 11.3521H237.479V11.3521ZM237.44 25.4763C240.406 25.4763 242.163 23.7548 242.163 20.1944C242.163 16.634 240.406 14.9125 237.44 14.9125H234.473V25.4763H237.44Z" fill="white"/>
<path d="M259.22 28.4499L258.361 25.9068H251.062L250.242 28.4108C250.125 28.7238 249.813 28.9586 249.5 28.9586H246.495C246.144 28.9586 245.909 28.6064 246.027 28.2934L252.077 11.8216C252.194 11.5086 252.506 11.313 252.818 11.313H256.683C257.034 11.313 257.307 11.5086 257.424 11.8216L263.591 28.2934C263.708 28.6064 263.474 28.9586 263.162 28.9586H260C259.649 28.9977 259.337 28.8021 259.22 28.4499ZM252.233 22.4246H257.19L256.175 19.412C255.902 18.6294 255.473 17.4166 254.965 15.7733C254.887 15.5385 254.536 15.5385 254.458 15.7733C253.911 17.4166 253.521 18.6294 253.248 19.412L252.233 22.4246Z" fill="white"/>
<path d="M262.968 20.1945C262.968 14.756 266.481 11 271.984 11C277.488 11 281.001 14.756 281.001 20.1945C281.001 25.6329 277.488 29.389 271.984 29.389C266.442 29.389 262.968 25.6329 262.968 20.1945ZM271.984 25.7503C275.224 25.7503 276.668 23.168 276.668 20.1945C276.668 17.2209 275.224 14.6387 271.984 14.6387C268.745 14.6387 267.3 17.2601 267.3 20.1945C267.3 23.1289 268.745 25.7503 271.984 25.7503Z" fill="white"/>
<g filter="url(#filter0_dd_205_27680)">
<path fill-rule="evenodd" clip-rule="evenodd" d="M29.9338 0C7.58676 0 2 5.59978 2 28C2 50.4002 7.58654 56 29.9338 56C52.2811 56 57.8676 50.4002 57.8676 28C57.8676 5.59978 52.2811 0 29.9338 0Z" fill="white"/>
</g>
<path d="M32.6662 26.7503C31.6526 26.1983 31.2519 24.9562 31.8176 23.9671L36.6263 15.2952C37.192 14.3061 38.4649 13.9151 39.4784 14.4671C40.492 15.0192 40.8928 16.2613 40.327 17.2504L35.5184 25.9222C34.9762 26.9113 33.6798 27.2794 32.6662 26.7503Z" fill="#272D28"/>
<path d="M31.912 30.4538C32.1713 29.3497 33.3027 28.6596 34.4341 28.9126L44.2636 31.1208C45.395 31.3739 46.1022 32.478 45.8429 33.5821C45.5836 34.6862 44.4522 35.3763 43.3207 35.1232L33.4913 32.915C32.3598 32.662 31.6527 31.5579 31.912 30.4538Z" fill="#272D28"/>
<path d="M27.8574 30.1546C29.0124 29.9935 30.0732 30.7756 30.2382 31.9027L31.6289 41.6557C31.7939 42.7828 30.9925 43.8179 29.8375 43.9789C28.6824 44.1399 27.6217 43.3578 27.4567 42.2307L26.066 32.4778C25.901 31.3277 26.726 30.2926 27.8574 30.1546Z" fill="#272D28"/>
<path d="M27.2914 26.4053C27.8571 27.3944 27.5036 28.6595 26.49 29.2116L17.6977 34.0191C16.6841 34.5711 15.3877 34.2261 14.8219 33.237C14.2562 32.2479 14.6098 30.9828 15.6234 30.4307L24.4157 25.6232C25.4292 25.0482 26.7257 25.4162 27.2914 26.4053Z" fill="#272D28"/>
<path d="M30.3082 24.8871C29.4832 25.6921 28.1396 25.6921 27.3382 24.8871L20.1959 17.9404C19.3709 17.1353 19.3709 15.8242 20.1959 15.0191C21.0209 14.214 22.3645 14.214 23.166 15.0191L30.3082 21.9888C31.1332 22.7939 31.1332 24.082 30.3082 24.8871Z" fill="#272D28"/>
<path d="M38.4883 28.2914C37.4511 27.7623 37.0504 26.5432 37.569 25.5311L40.0204 20.8847C40.5626 19.8726 41.8355 19.4815 42.8491 19.9876C43.8862 20.5166 44.2869 21.7357 43.7684 22.7478L41.3169 27.3943C40.7747 28.4064 39.5019 28.8204 38.4883 28.2914Z" fill="#272D28"/>
<path d="M32.43 36.3652C32.6893 35.2611 33.8208 34.571 34.9522 34.801L40.1852 35.9511C41.3166 36.2041 42.0238 37.3083 41.788 38.4124C41.5288 39.5165 40.3973 40.2065 39.2659 39.9765L34.0329 38.8264C32.9015 38.5734 32.1943 37.4693 32.43 36.3652Z" fill="#272D28"/>
<path d="M25.9471 12.5809C26.7957 11.7989 28.1157 11.7989 28.9407 12.6269L32.7122 16.3763C33.5372 17.1814 33.5136 18.4925 32.6886 19.2746C31.8636 20.0567 30.52 20.0567 29.695 19.2286L25.9235 15.4792C25.0985 14.6741 25.1221 13.363 25.9471 12.5809Z" fill="#272D28"/>
<path d="M22.4354 33.076C23.5905 32.9149 24.6748 33.674 24.8398 34.8011L25.6648 39.9766C25.8534 41.1037 25.0519 42.1618 23.8969 42.3229C22.7419 42.4839 21.6576 41.7248 21.4926 40.5977L20.6676 35.4222C20.5026 34.3181 21.2804 33.26 22.4354 33.076Z" fill="#272D28"/>
<path d="M22.6947 22.6099C23.2369 23.622 22.8126 24.8641 21.799 25.3702L17.0375 27.7624C16.0003 28.2914 14.7275 27.9004 14.2089 26.8883C13.6667 25.8762 14.091 24.6341 15.1046 24.128L19.8661 21.7358C20.9033 21.2068 22.1761 21.5978 22.6947 22.6099Z" fill="#272D28"/>
<defs>
<filter id="filter0_dd_205_27680" x="0" y="0" width="59.8672" height="62" filterUnits="userSpaceOnUse" color-interpolation-filters="sRGB">
<feFlood flood-opacity="0" result="BackgroundImageFix"/>
<feColorMatrix in="SourceAlpha" type="matrix" values="0 0 0 0 0 0 0 0 0 0 0 0 0 0 0 0 0 0 127 0" result="hardAlpha"/>
<feMorphology radius="2" operator="erode" in="SourceAlpha" result="effect1_dropShadow_205_27680"/>
<feOffset dy="4"/>
<feGaussianBlur stdDeviation="2"/>
<feColorMatrix type="matrix" values="0 0 0 0 0.0941176 0 0 0 0 0.152941 0 0 0 0 0.294118 0 0 0 0.08 0"/>
<feBlend mode="normal" in2="BackgroundImageFix" result="effect1_dropShadow_205_27680"/>
<feColorMatrix in="SourceAlpha" type="matrix" values="0 0 0 0 0 0 0 0 0 0 0 0 0 0 0 0 0 0 127 0" result="hardAlpha"/>
<feMorphology radius="2" operator="erode" in="SourceAlpha" result="effect2_dropShadow_205_27680"/>
<feOffset dy="2"/>
<feGaussianBlur stdDeviation="2"/>
<feColorMatrix type="matrix" values="0 0 0 0 0.0941176 0 0 0 0 0.152941 0 0 0 0 0.294118 0 0 0 0.12 0"/>
<feBlend mode="normal" in2="effect1_dropShadow_205_27680" result="effect2_dropShadow_205_27680"/>
<feBlend mode="normal" in="SourceGraphic" in2="effect2_dropShadow_205_27680" result="shape"/>
</filter>
</defs>
</svg>
